<svg width="518" height="518" viewBox="0 0 518 518" fill="none" xmlns="http://www.w3.org/2000/svg">
<path d="M22.7315 412.172C2.98694 370.165 6.84471 183.652 12.8624 130.875C15.338 111.95 20.6455 90.9979 36.8687 79.1581C46.1334 72.3964 56.6466 67.8503 67.6259 65.1492C92.2803 59.0833 118.48 56.2963 143.688 54.2817C204.845 49.3658 266.269 48.682 327.521 52.2351C356.593 53.9155 385.587 56.739 414.438 60.699C439.107 65.0682 471.312 69.4969 484.092 94.4211C503.51 120.88 500.371 369.443 488.24 405.952C483.924 421.893 476.205 436.741 461.438 445.276C413.154 473.182 123.475 467.811 65.3403 451.725C48.8205 447.154 36.1283 439.282 27.5897 424.036C25.4934 420.292 23.7581 416.35 22.7315 412.172Z" fill="#B7F8A2"/>
<path d="M203.777 78.2909C204.477 78.2395 205.176 78.2022 205.877 78.179C250.418 76.77 295.002 77.5841 339.462 80.6182C401.53 85.232 440.966 87.8037 445.4 159.889C446.805 182.719 448.479 205.621 449.088 228.747C449.642 258.669 449.032 288.602 447.26 318.476C445.286 354.278 444.748 415.483 402.984 427.755C365.954 438.637 317.866 439.991 278.979 440.773C240.176 441.605 201.354 440.755 162.624 438.228C48.8715 430.829 40.8001 419.923 35.7949 307.269C34.4338 271.654 34.4663 235.999 35.8924 200.386C36.8068 178.536 38.0016 148.047 44.5826 127.173C47.0123 119.524 51.0677 112.492 56.472 106.559C70.4252 91.4286 91.2784 88.4173 110.747 85.6081C141.442 81.1789 172.802 79.432 203.777 78.2909Z" fill="black"/>
<path d="M177.848 85.4134C234.031 82.2531 290.365 82.9633 346.45 87.5384C367.277 89.4312 398.695 91.5534 416.21 103.74L417.033 104.327L418.146 105.415C423.663 110.878 428.375 116.764 431.183 124.058C441.092 149.804 441.678 200.511 442.499 227.037C443.485 258.891 442.652 378.203 426.377 399.935C416.739 415.634 405.98 420.988 388.281 424.981C333.505 437.339 114.653 440.825 71.5318 414.239C71.0398 413.938 70.556 413.625 70.0806 413.298C64.6567 410.029 60.4518 404.177 57.023 398.965C38.8505 363.621 42.7849 285.996 41.7496 246.11C40.9319 214.599 42.6202 177.86 46.8931 146.561C52.2264 107.496 72.0315 98.1426 107.678 92.6448C130.96 89.2851 154.37 86.8724 177.848 85.4134ZM396.094 119.059C354.162 94.5358 168.387 98.8437 119.2 111.502C104.314 114.965 92.7101 119.931 83.7086 133.035C64.4031 163.299 69.6215 246.324 69.2232 283.498C69.0161 302.796 72.1021 370.136 84.0836 382.738L86.4312 386.239L87.774 387.623C89.1845 389.076 90.7645 390.652 92.2252 391.619C94.7705 393.759 96.2555 394.803 99.0631 396.604C138.561 416.44 326.365 415.266 375.478 403.102C392.388 398.914 401.464 393.553 410.426 378.665C419.683 358.189 422.493 320.808 422.749 296.695C423.259 248.555 426.263 190.132 415.01 143.289C413.422 136.676 407.801 129.565 403.207 124.53L402.303 123.551C400.325 121.922 398.309 120.354 396.094 119.059Z" fill="#6BA96D"/>
<path d="M217.648 113.018C251.537 111.887 368.966 110.271 393.79 132.356C409.978 146.757 409.998 178.803 411.1 199.199C413.294 239.818 415.258 327.816 403.344 364.833C401.589 370.285 398.913 375.408 395.027 379.65C390.671 384.406 385.547 387.468 379.554 389.681C353.872 399.16 304.807 399.139 276.195 400.406C236.792 401.26 197.371 399.978 158.107 396.567C145.201 395.381 131.592 394.334 118.934 391.394C111.217 389.602 106.211 387.218 99.8594 382.467C83.7349 370.404 82.1327 325.523 81.1676 305.813C79.4022 269.766 77.4841 183.118 88.1688 150.416C89.8987 145.016 92.7607 140.049 96.5651 135.845C110.007 121.166 134.684 119.945 153.411 117.509C174.418 114.776 196.47 113.881 217.648 113.018Z" fill="#FA7A2C"/>
<path d="M142.269 144.216C158.102 142.142 163.347 155.351 162.982 168.984C162.281 195.14 166.31 240.053 137.753 252C109.785 248.561 117.066 204.959 120.35 185.365C122.961 169.783 128.8 153.272 142.269 144.216Z" fill="#FCC46E"/>
</svg>
