<svg width="518" height="518" viewBox="0 0 518 518" fill="none" xmlns="http://www.w3.org/2000/svg">
<rect width="518" height="518" rx="259" fill="white"/>
<path d="M94.5225 369.497C80.4192 339.515 83.1748 206.393 87.4731 168.724C89.2414 155.216 93.0325 140.262 104.62 131.811C111.238 126.985 118.748 123.74 126.59 121.813C144.2 117.483 162.914 115.494 180.92 114.056C224.604 110.547 268.478 110.059 312.229 112.595C332.995 113.795 353.705 115.81 374.313 118.636C391.934 121.755 414.937 124.916 424.065 142.705C437.936 161.59 435.694 339 427.029 365.058C423.946 376.436 418.432 387.033 407.884 393.124C373.395 413.042 166.482 409.209 124.957 397.728C113.158 394.465 104.092 388.847 97.9926 377.965C96.4953 375.292 95.2558 372.479 94.5225 369.497Z" fill="black"/>
<path d="M101.031 365.014C87.4903 336.243 90.1359 208.495 94.2628 172.346C95.9606 159.384 99.6005 145.034 110.726 136.924C117.08 132.293 124.29 129.179 131.819 127.329C148.727 123.174 166.695 121.265 183.982 119.886C225.924 116.519 268.048 116.05 310.054 118.484C329.992 119.635 349.876 121.569 369.662 124.281C386.58 127.274 408.666 130.307 417.43 147.378C430.747 165.5 428.594 335.748 420.275 360.754C417.315 371.672 412.021 381.842 401.894 387.688C368.781 406.801 170.12 403.123 130.252 392.105C118.923 388.974 110.219 383.582 104.363 373.14C102.925 370.576 101.735 367.876 101.031 365.014Z" fill="#B7F8A2"/>
<path d="M396.369 364.642C405.031 364.626 412.315 364.131 420.276 360.754C417.316 371.672 412.022 381.842 401.895 387.687C368.782 406.801 170.121 403.123 130.253 392.105C118.924 388.974 110.219 383.582 104.363 373.14C102.926 370.575 101.736 367.875 101.032 365.014C107.858 372.565 110.018 378.065 119.587 383.416C152.754 401.962 325.549 401.012 365.254 389.736C379.918 385.571 389.01 377.874 396.369 364.642Z" fill="#6BA96D"/>
<path d="M222.395 127.086C222.9 127.049 223.405 127.022 223.911 127.005C256.054 125.989 288.228 126.576 320.312 128.766C365.104 132.095 393.563 133.951 396.763 185.972C397.777 202.447 398.985 218.974 399.424 235.663C399.824 257.256 399.384 278.857 398.105 300.416C396.68 326.252 396.292 370.421 366.153 379.277C339.431 387.13 304.728 388.107 276.665 388.671C248.662 389.271 220.647 388.658 192.697 386.834C110.608 381.495 104.783 373.625 101.171 292.328C100.189 266.626 100.212 240.896 101.242 215.196C101.901 199.428 102.764 177.426 107.513 162.362C109.266 156.842 112.193 151.767 116.093 147.486C126.162 136.567 141.211 134.394 155.26 132.367C177.412 129.17 200.042 127.91 222.395 127.086Z" fill="black"/>
<path d="M116.491 358.5C103.377 332.994 106.216 276.976 105.469 248.192C104.879 225.453 106.097 198.94 109.18 176.353C113.029 148.162 127.321 141.412 153.046 137.445C169.847 135.02 186.741 133.279 203.684 132.226C244.228 129.945 284.881 130.458 325.355 133.759C340.624 135.147 363.78 136.706 376.292 145.876C380.617 150.04 384.342 154.5 386.503 160.114C393.654 178.694 394.077 215.286 394.669 234.429C395.381 257.416 394.78 343.517 383.035 359.2C376.079 370.529 368.316 374.393 355.543 377.275C316.014 386.193 158.08 388.708 126.961 369.522C126.606 369.306 126.257 369.08 125.914 368.844C121.999 366.485 118.965 362.261 116.491 358.5Z" fill="#362307"/>
<path d="M116.491 358.5C103.377 332.994 106.216 276.976 105.469 248.192C104.879 225.453 106.097 198.94 109.18 176.353C113.029 148.162 127.321 141.412 153.046 137.445C169.847 135.02 186.741 133.279 203.684 132.226C244.228 129.945 284.881 130.458 325.355 133.759C340.624 135.147 363.78 136.706 376.292 145.876C375.094 148.788 368.124 156.487 365.662 159.748C364.234 158.572 362.779 157.441 361.181 156.506C330.921 138.809 196.856 141.918 161.361 151.053C150.618 153.552 142.244 157.136 135.748 166.593C121.816 188.432 125.582 248.348 125.295 275.174C125.145 289.1 127.373 337.696 136.019 346.79L137.713 349.316C131.114 352.545 121.42 354.498 116.491 358.5Z" fill="#6BA96D"/>
<path d="M371.524 343.851C375.254 347.283 379.622 355.004 383.034 359.2C376.079 370.529 368.316 374.393 355.543 377.275C316.014 386.193 158.079 388.709 126.961 369.522C126.606 369.306 126.256 369.08 125.913 368.844C121.999 366.485 118.965 362.261 116.491 358.5C121.419 354.498 131.114 352.545 137.713 349.317C138.93 350.557 140.489 352.269 141.894 353.2C143.731 354.744 144.803 355.496 146.829 356.796C175.332 371.111 310.861 370.264 346.303 361.486C358.507 358.463 365.056 354.595 371.524 343.851Z" fill="#B7F8A2"/>
<path d="M376.291 145.876C380.617 150.04 384.341 154.5 386.503 160.114C393.654 178.694 394.077 215.286 394.669 234.429C395.381 257.416 394.78 343.517 383.034 359.2C379.622 355.004 375.254 347.283 371.524 343.851C378.204 329.074 380.232 302.099 380.416 284.697C380.785 249.957 382.952 207.796 374.832 173.992C373.609 168.901 369.076 163.402 365.662 159.748C368.123 156.487 375.094 148.788 376.291 145.876Z" fill="#6BA96D"/>
<path d="M232.406 152.147C256.861 151.331 341.604 150.165 359.519 166.102C371.201 176.495 371.215 199.621 372.01 214.34C373.593 243.652 375.011 307.156 366.413 333.869C365.147 337.804 363.215 341.501 360.411 344.562C357.268 347.994 353.57 350.204 349.245 351.8C330.712 358.641 295.304 358.626 274.656 359.54C246.221 360.157 217.773 359.232 189.438 356.77C180.124 355.914 170.303 355.159 161.168 353.037C155.6 351.744 151.987 350.023 147.404 346.595C135.767 337.889 134.611 305.501 133.915 291.277C132.641 265.264 131.256 202.735 138.967 179.135C140.215 175.238 142.281 171.654 145.026 168.62C154.727 158.027 172.535 157.146 186.049 155.388C201.209 153.416 217.123 152.77 232.406 152.147Z" fill="#FA7A2C"/>
<path d="M159.568 177.07C166.783 176.132 169.174 182.103 169.007 188.266C168.688 200.089 170.524 220.391 157.51 225.791C144.764 224.237 148.082 204.527 149.579 195.67C150.769 188.627 153.43 181.163 159.568 177.07Z" fill="#FCC46E"/>
</svg>
