<svg width="678" height="184" viewBox="0 0 678 184" fill="none" xmlns="http://www.w3.org/2000/svg">
<path d="M661.117 137.88C654.034 137.88 648.829 136.259 645.501 133.016C642.173 129.688 640.509 124.44 640.509 117.272V53.144H659.709V114.968C659.709 118.296 660.392 120.557 661.757 121.752C663.208 122.947 665.341 123.544 668.157 123.544H677.757V137.88H661.117ZM629.501 83.608V69.272H677.757V83.608H629.501Z" fill="black"/>
<path d="M560.231 137.88V47H579.431V85.272H576.871C577.554 81.2613 578.876 77.976 580.839 75.416C582.887 72.856 585.404 70.936 588.391 69.656C591.463 68.376 594.791 67.736 598.375 67.736C603.495 67.736 607.762 68.8453 611.175 71.064C614.588 73.2827 617.148 76.3547 618.855 80.28C620.647 84.2053 621.543 88.6853 621.543 93.72V137.88H602.343V98.328C602.343 93.208 601.532 89.368 599.911 86.808C598.375 84.248 595.73 82.968 591.975 82.968C588.05 82.968 584.978 84.2907 582.759 86.936C580.54 89.5813 579.431 93.5493 579.431 98.84V137.88H560.231Z" fill="black"/>
<path d="M517.365 139.416C510.368 139.416 504.266 137.965 499.061 135.064C493.856 132.077 489.802 127.896 486.901 122.52C483.999 117.144 482.549 110.829 482.549 103.576C482.549 96.3226 483.999 90.0506 486.901 84.76C489.802 79.384 493.856 75.2026 499.061 72.216C504.266 69.2293 510.368 67.736 517.365 67.736C523.424 67.736 528.842 68.8026 533.621 70.936C538.485 73.0693 542.41 76.1413 545.397 80.152C548.384 84.1626 550.218 88.984 550.901 94.616L531.061 95.512C530.464 91.2453 528.928 88.0453 526.453 85.912C524.064 83.6933 521.034 82.584 517.365 82.584C512.586 82.584 508.874 84.4186 506.229 88.088C503.584 91.7573 502.261 96.92 502.261 103.576C502.261 110.232 503.584 115.437 506.229 119.192C508.874 122.861 512.586 124.696 517.365 124.696C521.034 124.696 524.106 123.587 526.581 121.368C529.056 119.064 530.549 115.608 531.061 111L550.901 111.768C550.304 117.4 548.512 122.307 545.525 126.488C542.624 130.584 538.741 133.784 533.877 136.088C529.098 138.307 523.594 139.416 517.365 139.416Z" fill="black"/>
<path d="M442.139 139.416C435.141 139.416 429.04 137.965 423.835 135.064C418.715 132.077 414.704 127.896 411.803 122.52C408.987 117.144 407.579 110.829 407.579 103.576C407.579 96.3226 408.987 90.0506 411.803 84.76C414.704 79.384 418.715 75.2026 423.835 72.216C428.955 69.2293 435.013 67.736 442.011 67.736C448.837 67.736 454.768 69.2293 459.803 72.216C464.837 75.2026 468.72 79.4693 471.451 85.016C474.267 90.5626 475.675 97.176 475.675 104.856V108.696H427.419C427.675 114.157 429.125 118.211 431.771 120.856C434.501 123.501 438.085 124.824 442.523 124.824C445.765 124.824 448.453 124.141 450.587 122.776C452.805 121.411 454.384 119.32 455.323 116.504L474.651 117.656C472.859 124.483 469.061 129.816 463.259 133.656C457.456 137.496 450.416 139.416 442.139 139.416ZM427.419 96.92H455.963C455.707 91.8853 454.299 88.1306 451.739 85.656C449.264 83.1813 446.021 81.944 442.011 81.944C438 81.944 434.672 83.2666 432.027 85.912C429.467 88.472 427.931 92.1413 427.419 96.92Z" fill="black"/>
<path d="M335.946 137.88V69.272H353.226L353.994 89.368L351.562 88.728C352.244 83.608 353.61 79.512 355.658 76.44C357.791 73.368 360.436 71.1493 363.594 69.784C366.751 68.4186 370.207 67.736 373.962 67.736C378.911 67.736 383.092 68.8026 386.506 70.936C390.004 73.0693 392.65 76.0986 394.442 80.024C396.319 83.864 397.258 88.4293 397.258 93.72V137.88H378.058V100.12C378.058 96.4506 377.759 93.336 377.162 90.776C376.564 88.216 375.498 86.296 373.962 85.016C372.426 83.6506 370.292 82.968 367.562 82.968C363.551 82.968 360.479 84.4613 358.346 87.448C356.212 90.3493 355.146 94.5733 355.146 100.12V137.88H335.946Z" fill="black"/>
<path d="M252 137.88V47H271.456V86.68L304.48 47H327.136L293.728 87.064L329.184 137.88H307.04L280.928 100.12L271.456 111.128V137.88H252Z" fill="black"/>
<path d="M6.53154 160.578C-2.22266 141.953 -0.512225 59.2577 2.15585 35.8578C3.25348 27.467 5.60669 18.1774 12.7996 12.9279C16.9073 9.92996 21.5686 7.91436 26.4365 6.71675C37.3676 4.02731 48.9838 2.79161 60.1604 1.8984C87.2759 -0.281182 114.51 -0.584379 141.667 0.990996C154.557 1.73601 167.412 2.98789 180.204 4.74366C191.142 6.68084 205.42 8.6444 211.086 19.6951C219.696 31.4262 218.304 141.633 212.926 157.82C211.012 164.888 207.59 171.471 201.042 175.255C179.634 187.628 51.1985 185.246 25.4232 178.114C18.0987 176.088 12.4713 172.597 8.68554 165.838C7.7561 164.178 6.98674 162.43 6.53154 160.578Z" fill="#B7F8A2"/>
<path d="M86.8021 12.5434C87.1124 12.5206 87.4227 12.5041 87.7333 12.4938C107.482 11.8691 127.249 12.23 146.961 13.5752C174.481 15.6209 191.966 16.7611 193.932 48.722C194.555 58.844 195.297 68.9981 195.567 79.2515C195.812 92.5182 195.542 105.79 194.756 119.035C193.881 134.909 193.642 162.045 175.125 167.487C158.707 172.311 137.386 172.912 120.145 173.258C102.94 173.627 85.7278 173.25 68.5559 172.13C18.1212 168.85 14.5426 164.014 12.3234 114.066C11.7199 98.2752 11.7343 82.4669 12.3666 66.6771C12.7721 56.9894 13.3018 43.4713 16.2197 34.2166C17.2969 30.8252 19.095 27.7072 21.4911 25.0767C27.6776 18.3683 36.9233 17.0331 45.5552 15.7876C59.1647 13.8238 73.0687 13.0493 86.8021 12.5434Z" fill="black"/>
<path d="M75.3059 15.7014C100.216 14.3002 125.192 14.6153 150.059 16.6438C159.44 17.4964 173.667 18.4536 181.354 24.0872C184.012 26.6457 186.3 29.3859 187.628 32.8352C192.022 44.2503 192.281 66.7323 192.645 78.4934C193.082 92.6162 192.713 145.515 185.497 155.152C181.224 162.112 176.454 164.487 168.607 166.257C144.321 171.736 47.287 173.281 28.1682 161.493C27.9502 161.36 27.7353 161.222 27.5247 161.077C25.1199 159.628 23.2558 157.033 21.7356 154.722C13.6784 139.051 15.4232 104.634 14.9641 86.9495C14.6016 72.9787 15.349 56.6896 17.2434 42.8127C19.6081 25.4924 28.3897 21.3451 44.1946 18.9075C54.5172 17.4179 64.8962 16.3483 75.3059 15.7014ZM172.071 30.6184C153.479 19.7456 71.1111 21.6563 49.303 27.2688C42.7031 28.804 37.5578 31.0054 33.5667 36.8157C25.0072 50.2334 27.3214 87.0445 27.1448 103.527C27.053 112.083 28.4214 141.939 33.7337 147.527L34.7737 149.079L35.3694 149.694C35.9948 150.338 36.6955 151.036 37.343 151.465C38.4715 152.414 39.1297 152.877 40.3743 153.675C57.8864 162.47 141.155 161.949 162.93 156.556C170.428 154.699 174.451 152.322 178.425 145.721C182.529 136.642 183.776 120.069 183.889 109.378C184.115 88.0343 185.447 62.1303 180.457 41.3616C179.706 38.234 176.921 34.8555 174.824 32.6106C173.946 31.8884 173.052 31.1928 172.071 30.6184ZM176.378 30.6848V30.6858V30.6848Z" fill="#6BA96D"/>
<path d="M92.9523 27.9406C107.978 27.439 160.043 26.7228 171.049 36.5147C178.226 42.8998 178.235 57.1079 178.724 66.1511C179.696 84.1605 180.567 123.176 175.285 139.589C174.507 142.006 173.32 144.277 171.598 146.158C169.666 148.267 167.394 149.625 164.737 150.605C153.35 154.808 131.596 154.799 118.911 155.361C101.44 155.74 83.9622 155.171 66.5533 153.659C60.8312 153.133 54.7971 152.669 49.185 151.365C45.7635 150.571 43.5439 149.514 40.728 147.407C33.5788 142.059 32.8684 122.159 32.4405 113.421C31.6578 97.4383 30.8074 59.0211 35.5447 44.5217C36.3117 42.1276 37.5806 39.9252 39.2674 38.0613C45.2274 31.5532 56.1683 31.012 64.4711 29.9319C73.7852 28.7201 83.5627 28.3234 92.9523 27.9406Z" fill="#FA7A2C"/>
<path d="M59.5314 41.7729C66.5512 40.8532 68.8768 46.71 68.715 52.7545C68.4041 64.3513 70.1906 84.2643 57.5289 89.5615C45.1289 88.0367 48.357 68.7047 49.813 60.0172C50.9707 53.1087 53.5595 45.7881 59.5314 41.7729Z" fill="#FCC46E"/>
</svg>
