<svg width="654" height="1199" viewBox="0 0 654 1199" fill="none" xmlns="http://www.w3.org/2000/svg">
<path d="M287.531 361L374.281 361.596C374.341 364.952 374.437 368.418 374.696 371.153C375.816 372.357 375.743 372.167 377.389 372.183C416.819 372.564 463.67 363.831 466.148 418.138C478.464 420.702 483.651 422.002 493.81 429.615C509.785 416.149 523.273 414.593 543.57 415.744C574.257 417.483 594.206 429.906 594.745 463.331C595.777 468.791 595.976 476.457 596.158 482.112C597.265 515.592 596.72 549.183 596.62 582.682C596.615 586.277 596.544 590.557 596.234 594.122L595.853 604.285C595.706 619.647 595.747 634.887 594.962 650.231C594.47 659.938 594.763 669.422 593.989 679.158L593.561 684.111C593.708 688.455 592.753 718.664 591.839 722.177C591.798 723.535 591.739 728.951 591.487 729.964C591.311 744.729 589.149 789.463 585.144 802.7C584.42 806.271 582.009 812.571 579.407 815.111C576.922 818.097 575.913 818.267 572.295 819.713C572.437 833.085 572.682 855.062 568.178 867.691C561.713 893.351 556.592 901.635 533.385 915.469C519.699 923.63 506.541 924.555 490.72 923.736C487.01 923.542 480.589 922.366 477.331 922.887C477.018 924.725 477.093 925.422 477.196 927.219C478.013 938 478.32 948.814 478.116 959.624C478.227 962.768 478.396 966.058 478.395 969.19C479.605 996.741 480.268 1024.32 480.384 1051.9C480.541 1063.39 481.457 1075.39 481.008 1086.81C481.254 1091.88 481.744 1098.42 481.559 1103.36C482.291 1111.56 482.812 1129.6 481.597 1137.56C482.071 1144.74 483.481 1150.7 484.581 1157.72L484.651 1159.66C484.761 1164.72 485.431 1170.7 481.625 1174.71C471.625 1185.21 405.153 1186.54 389.529 1186.65C379.952 1186.72 342.346 1188.08 335.619 1181.41C333.983 1179.79 333.643 1176.9 333.804 1174.7C333.998 1172.04 334.457 1169.37 334.842 1166.73L335.029 1165.15L335.732 1162.84C335.897 1162 336.099 1161.16 336.34 1160.34C341.435 1143.12 348.345 1137.16 363.285 1129.1C363.105 1124.92 363.093 1120.73 363.251 1116.55C362.199 1098.57 362.613 1076.5 362.358 1058.07C361.844 1020.96 360.511 980.589 362.167 943.53C362.053 941.164 362.304 938.635 362.274 936.258C361.925 908.895 363.726 881.068 363.314 853.769C337.262 858.113 315.218 856.702 289.405 853.575C287.411 870.899 286.74 892.695 285.28 910.592C285.234 915.534 284.669 920.399 284.358 925.322C282.799 949.981 282.611 974.939 281.132 999.569L281.112 1000.44C281.007 1011.31 281.371 1035.05 280.131 1045C280.476 1069.39 279.592 1094 280.019 1118.43C280.077 1121.71 280.349 1129.87 279.859 1132.61C282.539 1142.65 282.325 1147.06 283.643 1156.98C283.686 1164.23 285.65 1170.01 277.898 1173.01C261.993 1180.16 188.77 1180.17 167.464 1180.1C162.046 1180.09 149.263 1178.22 144.404 1178.5C139.52 1177.7 130.378 1176.95 126.791 1174.14C118.365 1167.55 124.619 1146.1 129.701 1139.51C139.973 1126.18 154.163 1123.75 169.449 1121.48C170.093 1114.71 168.817 1090.47 168.686 1082.08C168.232 1054.39 168.184 1026.7 168.543 999.013C168.617 994.089 169.43 968.845 170.353 965.004C170.405 951.304 172.786 924.017 174.649 910.001C174.52 907.765 175.151 900.528 175.728 898.345C175.866 889.341 177.421 877.023 178.532 867.878C179.531 855.01 181.22 841.714 182.725 828.799C184.687 813.279 185.863 797.46 190.015 782.356C195.447 762.602 214.499 761.578 231.467 761.49C245.575 761.42 256.751 761.004 270.382 765.477C271.878 757.228 272.112 747.638 273.705 738.576C271.227 737.563 268.4 737.141 265.807 736.404C242.21 729.665 213.539 724.056 208.139 695.756C204.585 677.133 204.798 658.82 204.377 640.249C203.67 615.93 203.389 591.599 203.533 567.271L193.175 566.611C192.562 579.418 192.178 592.231 192.025 605.052C191.967 611.931 191.349 617.762 191.072 624.46C190.486 642.587 189.595 660.704 188.397 678.801C187.947 686.008 187.029 707.125 185.812 713.167C185.088 727.253 180.661 793.391 174.431 801.482C173.024 804.023 172.358 804.626 170.294 806.716C170.614 816.493 171.344 828.384 169.07 837.874C167.37 844.378 164.45 849.003 163.273 855.829C160.852 869.863 176.876 895.576 159.236 903.819C149.072 908.514 121.939 917.325 111.558 912.981C71.9281 896.401 69.9071 836.714 83.8351 802.378C84.3541 801.102 83.4391 799.702 82.8511 798.52C77.3211 791.793 80.3551 779.34 81.4631 771.361C82.5941 763.205 83.9221 754.916 85.2171 746.784C85.8031 743.488 86.1741 740.139 86.6381 736.819C97.1851 661.308 101.75 585.223 102.543 509.027C102.592 504.39 102.88 500.119 103.294 495.516C103.953 478.611 104.702 465.506 107.437 448.609C108.663 443.128 110.983 436.722 114.67 432.446C117.088 428.618 120.67 426.035 124.613 423.966C125.558 422.753 130.795 420.483 132.474 419.979C145.561 416.058 161.687 415.399 174.979 418.68C177.57 419.319 184.466 422.869 186.921 424.095C196.613 420.902 198.245 420.884 208.702 420.196C209.446 397.221 213.937 376.102 241.272 372.293C251.583 369.687 277.14 371.251 288.341 371.879C287.893 367.929 287.557 364.527 287.531 361ZM463.675 570.936C463.526 577.153 462.864 594.555 461.73 600.099C461.199 614.501 459.419 633.458 458.027 648.036C457.681 660.594 454.392 696.523 451.299 708.003C446.284 726.627 404.959 736.644 386.94 740.531C386.862 748.435 385.912 761.601 384.729 769.411C401.455 766.062 414.534 764.371 431.868 764.78C447.022 765.143 466.916 762.802 470.781 782.812C471.645 787.285 470.76 797.302 473.171 800.001C475.217 799.972 474.625 799.972 476.54 798.584C476.956 797.472 477.054 797.331 477.037 796.096C476.639 779.434 477.664 764.769 478.692 748.183C479.513 734.934 479.745 721.311 480.932 708.074C481.863 661.326 484.66 614.695 483.191 567.812C483.14 566.19 483.582 564.338 484.088 562.798C475.756 567.356 472.863 568.501 463.675 570.936Z" fill="black"></path>
<path d="M220.226 558.081C239.552 564.261 246.953 564.371 267.126 565.492C294.832 567.031 321.852 567.015 349.579 566.821L365.59 566.727C367.243 566.363 379.368 567.499 383 566.5L390.5 566L396.142 564C397.657 563.258 396.5 563 398.333 561.553C424.088 573.914 426.199 570.083 451.561 573.471C450.409 599.91 447.595 626.483 445.474 652.869C444.135 669.537 443.096 686.714 440.235 703.177C438.721 711.889 426.438 717.936 418.868 720.963C382.991 735.283 342.874 732.578 305.028 731.583C282.309 730.758 257.504 726.812 236.786 717.971C232.288 715.846 230.706 714.582 227.344 710.923C226.489 710.216 225.683 709.453 224.93 708.639C218.584 701.819 217.127 692.557 216.296 683.588C213.209 650.264 214.315 616.636 213.36 583.198C213.157 576.09 213.117 568.519 213.357 561.428C215.271 560.298 218.151 559.052 220.226 558.081Z" fill="#B7F8A2"></path>
<path d="M397.212 563.454C397.38 562.254 397.341 562.618 398.333 561.553C424.088 573.914 426.199 570.083 451.561 573.471C450.409 599.91 447.595 626.483 445.474 652.869C444.135 669.537 443.096 686.714 440.235 703.177C438.721 711.889 426.438 717.936 418.868 720.963C382.991 735.283 342.874 732.578 305.028 731.583C282.309 730.758 257.504 726.812 236.786 717.971C235.936 716.525 236.032 717.146 236.195 715.595L237.261 715.144C239.324 715.436 240.193 715.524 242.275 715.079C245.612 715.226 250.276 716.385 253.828 716.812C278.194 719.734 303.145 720.559 327.694 720.237C346.754 719.985 375.547 722.995 387.073 704.354C391.659 698.786 392.311 677.341 392.881 669.449C394.134 653.589 395.003 637.702 395.487 621.8C395.868 610.893 396.98 597.48 396.727 586.837C397.17 579.489 397.432 570.823 397.212 563.454Z" fill="#6BA96D"></path>
<path d="M227.344 710.923C232.462 712.14 237.14 713.955 242.275 715.079C240.193 715.524 239.324 715.436 237.261 715.144L236.196 715.595C236.033 717.146 235.936 716.525 236.786 717.971C232.289 715.846 230.706 714.582 227.344 710.923Z" fill="#6BA96D"></path>
<path d="M219.128 444.464C219.257 442.679 218.664 437.585 218.635 435.293C218.495 427.565 219.049 419.839 220.292 412.21C223.302 393.524 231.268 384.275 251.154 382.674C258.361 382.093 266.666 381.587 273.819 382.83L276.472 383.118L276.739 383.724C274.828 384.749 274.24 384.76 272.17 385.035C266.57 385.408 254.555 384.967 250.49 386.934L249.732 387.935C253.401 399.232 292.429 393.342 301.043 392.807C318.28 391.738 336.351 393.399 353.485 393.106C364.491 392.918 411.268 400.438 415.784 391.012C412.495 385.827 390.259 387.813 387.914 384.767C392.806 381.791 420.023 383.175 426.828 384.862C436.373 387.228 444.945 391.01 449.932 400.087C463.352 424.512 447.94 418.31 430.748 423.03C415.359 427.254 394.103 434.427 384.898 448.526C382.551 453.536 381.527 456.627 380.41 462.063C377.298 477.2 374.463 525.315 379.028 538.645C382.894 547.476 387.756 555.348 396.142 560.585C393.143 560.86 376.517 561.802 375.003 562.544L371.5 555.5C367.868 556.499 368.653 554.136 367 554.5L360 556.5C364.383 554.518 350.216 552.03 355 552C355.29 551.106 350.947 557.768 351.5 557L347 555.5C344.963 554.654 331.51 550.361 344 556C315.982 555.433 244.948 565.376 224.213 553.364C216.743 549.036 212.797 541.607 210.648 533.553C210.672 530.217 209.126 520.474 208.906 515.61C208.185 499.664 209.832 462.382 216.579 449.508C217.27 447.125 217.773 446.517 219.128 444.464Z" fill="#B7F8A2"></path>
<path d="M219.127 444.464C219.256 442.679 218.664 437.585 218.635 435.293C218.495 427.565 219.049 419.839 220.292 412.21C223.302 393.524 231.267 384.275 251.154 382.674C258.361 382.093 266.666 381.587 273.819 382.83L276.471 383.118L276.739 383.724C274.828 384.749 274.24 384.76 272.169 385.035C266.57 385.408 254.555 384.967 250.49 386.934L249.732 387.935C253.401 399.232 292.429 393.342 301.043 392.807C318.279 391.738 336.351 393.399 353.485 393.106C364.491 392.918 411.267 400.438 415.784 391.012C412.495 385.827 390.259 387.813 387.913 384.767C392.805 381.791 420.023 383.175 426.828 384.862C436.373 387.228 444.944 391.01 449.931 400.087C463.352 424.512 447.94 418.31 430.748 423.03C415.359 427.254 394.102 434.427 384.898 448.526C380.91 447.219 353.534 451.325 347.166 451.992C325.166 454.295 304.554 452.539 282.606 452.096C277.305 451.841 270.747 451.066 265.339 450.598C262.665 449.911 253.319 449.239 250.058 448.879C242.026 447.971 234.022 446.831 226.056 445.461C223.742 445.163 221.432 444.83 219.127 444.464ZM234.364 536.822C228.159 536.218 214.933 533.681 210.648 533.553C212.797 541.607 216.743 549.036 224.213 553.364C244.948 565.376 328.473 562.072 356.49 562.639C358.144 562.275 378.534 563.638 382.166 562.639L387.5 562C391.5 562 393.143 560.86 396.142 560.585C387.756 555.348 382.894 547.476 379.028 538.645C369.752 538.379 356.977 540.043 347.332 540.106C328.821 540.226 309.509 540.766 291.055 540.208C272.125 539.73 253.217 538.6 234.364 536.822ZM494.266 456.82C495.804 446.405 500.184 435.832 510.531 431.529C526.468 424.903 547.763 425.309 563.776 431.286C566.955 432.45 567.766 432.883 570.592 434.754C575.931 437.81 581.573 445.623 582.658 451.356C587.071 474.656 586.11 505.02 586.104 528.644C586.162 550.068 585.915 571.491 585.363 592.908C585.092 604.517 585.073 616.589 584.11 628.123C577.878 628.14 556.233 627.063 551.851 631.144C546.194 636.413 550.516 661.142 543.45 665.673C538.7 668.724 513.017 669.051 507.464 668.074C501.869 668.062 498.38 667.313 493.128 665.749C492.413 657.863 492.854 641.395 492.85 633.011L492.798 570.677L492.239 504.145C492.207 491.725 492.265 468.935 494.266 456.82Z" fill="#6BA96D"></path>
<path d="M522.492 447.91C519.196 457.059 518.823 463.181 518.484 472.953L518.678 600.384C518.731 621.876 518.228 646.617 519.236 667.898C515.973 667.927 510.562 667.81 507.464 668.074C501.869 668.062 498.38 667.313 493.128 665.749C492.413 657.863 492.854 641.395 492.85 633.011L492.798 570.677L492.239 504.145C492.207 491.725 492.265 468.935 494.266 456.82C499.671 456.075 502.608 455.409 508.328 454.896C511.064 454.001 518.26 454.008 520.018 452.46C520.645 451.908 519.573 450.507 522.492 447.91Z" fill="#B7F8A2"></path>
<path d="M494.266 456.82C495.803 446.405 500.184 435.832 510.531 431.529C526.468 424.903 547.763 425.309 563.776 431.286C563.417 431.643 562.463 432.643 562.117 432.889C547.38 431.892 530.327 433.564 522.492 447.91C519.573 450.507 520.645 451.908 520.018 452.46C518.26 454.008 511.064 454.001 508.328 454.896C502.608 455.409 499.671 456.075 494.266 456.82Z" fill="#B7F8A2"></path>
<path d="M563.776 431.286C566.955 432.45 567.766 432.883 570.592 434.754C569.08 435.393 564.218 433.519 562.117 432.889C562.463 432.643 563.417 431.643 563.776 431.286ZM416.273 776.856C424.23 775.644 447.729 776.13 454.785 778.864C462.118 781.616 460.642 803.658 460.591 810.806C457.884 814.137 453.307 819.272 451.439 822.978C445.487 834.786 443.224 848.404 441.697 861.377C439.217 882.442 450.738 880.03 465.153 885.884C453.179 898.126 446.841 916.942 466.34 925.455L466.76 966.056C466.811 970.429 467.857 991.944 465.218 994.163C457.186 1000.92 434.104 1002.01 424.153 1000.68C423.107 997.828 419.751 974.527 419.881 971.67C418.346 969.439 417.151 968.28 414.001 967.947C404.071 966.899 386.903 966.664 378.197 971.74C375.823 973.122 375.39 975.376 374.999 977.753C374.901 978.45 374.814 978.502 374.542 979.164C373.763 977.419 373.886 975.792 373.868 973.895C373.626 934.09 374.325 894.285 375.967 854.516C376.507 837.719 374.812 803.348 381.005 789.314C381.905 787.435 383.134 785.732 384.633 784.285C391.682 777.371 406.87 776.944 416.273 776.856Z" fill="#B7F8A2"></path>
<path d="M454.785 778.864C462.118 781.616 460.642 803.658 460.591 810.806C457.884 814.137 453.307 819.272 451.439 822.978C445.487 834.786 443.224 848.404 441.697 861.377C439.217 882.442 450.738 880.03 465.153 885.884C453.179 898.126 446.841 916.942 466.34 925.455L466.76 966.056C466.811 970.429 467.857 991.944 465.218 994.163C457.186 1000.92 434.104 1002.01 424.153 1000.68C423.107 997.828 419.751 974.527 419.881 971.67C420.339 969.51 420.079 963.643 420.04 961.155C420.315 955.535 420.052 947.093 420.056 941.232L420.133 900.456C420.194 864.673 420.823 828.891 422.022 793.131C422.844 790.169 422.982 787.857 425.46 786.001C432.522 780.708 445.791 778.759 454.386 779.73L454.785 778.864Z" fill="#6BA96D"></path>
<path d="M199.361 787.517C200.777 782.986 202.33 780.351 206.374 777.582C216.975 770.328 243.008 771.616 254.927 773.736C257.41 774.286 261.953 775.158 264.196 775.96C266.815 776.61 269.075 777.272 269.968 780.146C269.525 781.182 268.406 782.746 267.271 782.746C247.809 782.769 243.343 805.584 247.627 820.934C250.798 832.292 258.184 830.946 264.825 838.129C266.15 839.757 266.119 851.524 267.06 855.839L277.47 857.074L272.306 940.834C271.904 947.819 270.959 989.128 267.825 993.08C262.215 996.083 239.497 995.82 232.783 995.117C232.513 986.254 234.391 969.674 229.792 962.789L227.276 961.489C221.456 960.283 192.749 956.571 188.369 961.518C184.095 966.348 187.168 987.067 182.231 992.43C180.194 993.291 181.059 993.209 178.955 992.846C175.503 982.899 194.902 804.038 199.361 787.517Z" fill="#B7F8A2"></path>
<path d="M264.197 775.96C266.816 776.61 269.075 777.272 269.968 780.146C269.525 781.182 268.407 782.746 267.271 782.746C247.809 782.769 243.343 805.584 247.627 820.934C250.798 832.292 258.184 830.946 264.825 838.129C266.15 839.757 266.119 851.524 267.06 855.839L277.47 857.074L272.306 940.834C271.904 947.819 270.959 989.128 267.825 993.08C262.215 996.083 239.497 995.82 232.783 995.117C232.513 986.254 234.392 969.674 229.792 962.789C230.891 960.781 230.958 942.193 231.016 938.686C231.821 933.335 231.954 915.783 232.123 909.343C232.864 904.209 233.211 883.97 233.191 878.478C233.892 874.035 234.012 864.392 234.199 859.621C234.714 847.624 235.107 835.624 235.378 823.622C235.681 809.454 234.351 782.342 252.353 777.09C255.676 776.118 261.801 777.318 264.197 775.96ZM518.205 674.836L518.613 674.771C527.828 673.39 543.634 675.14 550.192 667.781C557.112 660.018 549.564 636.167 559.396 635.435C565.405 634.99 578.24 634.738 584.157 636.091C584.812 645.276 584.258 655.727 583.924 664.983C583.363 679.854 582.69 694.721 581.904 709.582C581.065 729.139 579.956 748.683 578.577 768.209C577.892 777.412 577.218 786.475 576.051 795.713C573.464 816.204 565.427 814.559 548.24 815.753C522.172 817.562 509.917 809.231 488.493 796.445C485.047 791.077 486.958 775.445 487.32 768.402L490.024 724.236C490.774 711.52 491.078 685.959 492.942 674.285C501.646 674.678 509.504 675.064 518.205 674.836Z" fill="#6BA96D"></path>
<path d="M492.942 674.285C501.646 674.677 509.504 675.064 518.205 674.836L519.164 675.415C519.698 679.244 518.295 717.731 517.442 721.121C517.352 727.134 517.032 740.371 516.202 746.049C515.807 762.858 514.047 783.185 513.149 800.362C508.346 798.207 496.262 794.203 490.155 794.964C489.748 795.016 488.83 796.053 488.493 796.445C485.047 791.076 486.958 775.445 487.32 768.402L490.024 724.236C490.774 711.52 491.078 685.959 492.942 674.285ZM373.215 1005.9C385.149 997.769 365.669 971.758 393.19 972.7C395.307 972.776 411.821 971.769 412.851 972.794C419.132 979.041 413.526 1000 420.718 1005.85C431.824 1006.86 442.813 1005.27 453.818 1003.92C457.199 1003.5 463.415 1002.4 466.524 1002.4C469.531 1007.77 468.499 1074.79 469.247 1085.23C469.835 1093.44 470.922 1125.67 469.906 1132.47C465.073 1137.73 447.028 1137.12 439.108 1137.5C434.668 1127.83 432.604 1124.14 423.476 1117.93L420.193 1116.59C415.696 1116.54 412.958 1116.25 408.487 1115.67C399.396 1115.03 392.957 1115.5 383.836 1116.31C380.619 1116.98 376.323 1119.94 373.941 1118.27L373.66 1115.53C374.303 1106.01 373.507 1088.63 373.422 1078.43C373.204 1054.26 373.135 1030.08 373.215 1005.9Z" fill="#B7F8A2"></path>
<path d="M420.718 1005.85C431.823 1006.86 442.813 1005.27 453.818 1003.92C457.199 1003.5 463.415 1002.4 466.524 1002.4C469.531 1007.77 468.498 1074.79 469.247 1085.23C469.835 1093.44 470.922 1125.67 469.906 1132.47C465.073 1137.73 447.028 1137.12 439.108 1137.5C434.668 1127.83 432.603 1124.14 423.476 1117.93C421.747 1103.67 423.21 1079.83 422.038 1064.34C422.264 1060.67 422.103 1055.95 422.01 1052.25C421.631 1037.09 421.939 1021.4 420.714 1006.33L420.718 1005.85Z" fill="#6BA96D"></path>
<path d="M373.66 1115.53C376.052 1114.56 377.115 1114.34 379.663 1113.82C381.223 1115.03 382.493 1115.35 383.836 1116.31C380.619 1116.98 376.322 1119.94 373.941 1118.27L373.66 1115.53ZM178.09 1000.1C179.299 1000.07 182.587 1000.05 183.455 999.473C192.618 993.367 185.651 972.138 192.936 965.23C198.127 963.954 219.685 965.816 224.975 967.677C227.192 970.482 226.721 994.748 226.785 1000.36C233.232 1001.7 262.382 1000.68 269.507 999.918C269.603 1039.15 267.424 1078.71 268.367 1118.01C268.421 1120.27 268.108 1125.24 266.603 1126.71C262.145 1131.69 243.729 1133.05 236.893 1133.13C234.473 1124.66 233.17 1119.12 224.933 1114.48C223.65 1113.77 222.343 1113.1 221.015 1112.48L220.564 1112.35C216.689 1112.48 211.919 1111.62 208.015 1111.05C200.742 1111.05 192.835 1110.84 185.718 1112.07C183.835 1112.91 182.028 1114.03 180.095 1113.76C178.935 1112.22 179.311 1111.7 179.218 1109.45C178.506 1099.35 178.551 1087.4 178.374 1077.17C178.091 1051.48 177.997 1025.79 178.09 1000.1Z" fill="#B7F8A2"></path>
<path d="M226.785 1000.36C233.233 1001.7 262.382 1000.68 269.507 999.918C269.603 1039.15 267.425 1078.71 268.367 1118.01C268.421 1120.27 268.108 1125.24 266.603 1126.71C262.145 1131.69 243.729 1133.05 236.893 1133.13C234.473 1124.66 233.17 1119.12 224.933 1114.48C223.65 1113.77 222.343 1113.1 221.015 1112.48C221.288 1112.23 221.616 1111.93 221.999 1111.59C222.703 1100.9 222.855 1085.76 223.175 1075.45L224.864 1031.48C225.264 1021.99 225.615 1009.65 226.785 1000.36Z" fill="#6BA96D"></path>
<path d="M179.218 1109.45C182.163 1108.26 182.53 1108.1 185.695 1107.82C184.906 1109.48 185.288 1110.31 185.719 1112.07C183.835 1112.91 182.028 1114.03 180.095 1113.76C178.935 1112.22 179.312 1111.7 179.218 1109.45Z" fill="#B7F8A2"></path>
<path d="M117.037 452.969C121.302 429.712 148.079 425.919 167.538 428.671C171.077 428.789 176.317 430.75 179.737 431.988C167.529 441.736 164.902 453.559 163.264 468.58C163.214 469.037 163.169 469.496 163.129 469.955C156.848 471.786 151.73 473.762 148.648 480.136C143.785 490.192 143.792 504.842 146.823 515.458C149.915 526.287 154.012 528.905 163.749 532.389C166.004 542.219 167.219 549.463 174.338 557.438C176.324 559.662 178.879 561.764 180.633 563.695C181.576 572.329 181.477 617.52 178.833 624.27C173.174 629.885 151.369 617.83 147.973 632.074C145.59 642.074 145.555 654.234 142.365 663.624C136.071 664.947 131.15 664.854 124.726 664.672C117.355 664.221 112.939 663.753 105.864 661.745C105.77 650.973 106.788 638.485 107.391 627.619C108.266 611.632 109.046 595.641 109.731 579.645C110.679 559.166 111.424 538.677 111.967 518.183C112.381 505.576 113.341 463.02 117.037 452.969Z" fill="#6BA96D"></path>
<path d="M117.037 452.969C121.302 429.712 148.079 425.919 167.538 428.671L166.936 429.472C157.234 430.569 148.095 432.909 141.552 441.049C140.68 442.132 139.86 443.254 139.092 444.413C128.081 468.131 134.216 511.041 131.386 536.884L130.506 568.376C129.696 588.987 128.637 609.587 127.329 630.172C126.875 638.146 126.462 651.945 125.367 659.409C125.392 661.335 125.658 663.08 124.726 664.672C117.355 664.221 112.939 663.753 105.864 661.745C105.77 650.973 106.788 638.485 107.391 627.619C108.266 611.632 109.046 595.641 109.731 579.645C110.679 559.166 111.424 538.677 111.967 518.183C112.381 505.576 113.341 463.02 117.037 452.969Z" fill="#B7F8A2"></path>
<path d="M153.839 631.313C161.619 631.665 171.823 631.94 179.205 633.801C179.954 641.898 178.129 661.868 177.595 671.212C176.165 695.553 174.297 719.867 171.991 744.141C170.59 759.855 168.973 775.626 166.834 791.281C166.157 796.234 164.065 802.03 158.019 802.282C150.745 802.212 145.343 795.409 139.076 792.528C131.743 789.162 124.393 788.02 116.469 787.903C108.09 787.786 103.654 791.047 96.6041 794.829C94.1371 796.152 93.8131 796.428 91.1491 795.637L89.8251 793.922C88.1111 788.307 94.0061 755.229 95.0521 747.285L104.566 669.549C111.579 670.064 118.6 670.427 125.628 670.638C130.035 670.679 143.852 671.335 145.959 668.571C151.561 661.23 151.958 640.704 153.839 631.313Z" fill="#6BA96D"></path>
<path d="M104.566 669.549C111.579 670.064 118.6 670.427 125.628 670.638C122.105 696.679 120.59 724.845 117.106 751.079C115.923 759.995 115.378 771.85 113.624 780.293C105.967 782.933 94.6491 786.709 90.0441 793.594L89.8251 793.922C88.1111 788.307 94.0061 755.23 95.0521 747.285L104.566 669.549Z" fill="#B7F8A2"></path>
<path d="M392.302 448.395C397.127 441.413 406.626 436.682 414.438 433.466C427.584 428.054 444.629 423.736 458.906 426.253C463.606 427.082 470.293 429.802 474.657 431.601L480.7 434.658C483.969 436.237 486.731 438.353 489.281 440.934L486.367 450.629C454.644 450.056 449.238 479.807 449.129 504.882C449.033 526.777 451.396 539.266 475.793 540.481C477.279 544.222 478.86 547.925 480.532 551.587C474.513 561.803 465.933 565.633 454.347 566.797C429.386 569.305 391.48 563.044 384.591 534.098C383.504 529.552 383.13 524.511 382.703 519.92C382.393 500.726 381.634 464.647 392.302 448.395Z" fill="#6BA96D"></path>
<path d="M392.302 448.395C397.127 441.413 406.626 436.682 414.438 433.466C427.584 428.054 444.629 423.736 458.906 426.253C463.606 427.082 470.293 429.802 474.657 431.601L480.7 434.658C478.639 434.808 474.159 434.988 472.354 435.314C460.602 438.864 453.346 442.436 446.854 453.546C438.085 468.554 440.912 489.541 435.968 503.121C425.484 512.438 396.952 519.855 383.431 520.272L382.703 519.92C382.393 500.726 381.634 464.647 392.302 448.395Z" fill="#B7F8A2"></path>
<path d="M392.302 448.395C397.127 441.413 406.626 436.682 414.438 433.466C427.583 428.054 444.629 423.736 458.906 426.253C463.606 427.082 470.293 429.802 474.657 431.601L480.7 434.658C478.639 434.808 474.159 434.988 472.354 435.314C470.926 434.322 467.656 434.087 465.855 433.857C456.129 433.494 430.41 443.461 419.413 445.827C409.601 447.937 402.237 447.993 392.302 448.395Z" fill="#6BA96D"></path>
<path d="M282.724 751.939C283.877 748.69 284.683 745.64 288.094 744.047C289.766 743.269 291.597 743.005 293.429 742.994C298.524 742.958 303.816 743.913 308.932 744.176C315.515 744.51 340.261 744.258 345.054 745.845C346.283 746.255 346.689 746.934 347.194 748.058C348.735 751.494 348.264 804.852 348.474 812.68C348.768 823.604 350.906 834.775 350.412 845.623C345.978 853.889 301.025 851.735 292.685 845.939C285.474 840.928 284.412 836.39 281.516 828.861C279.976 814.12 279.536 765.697 282.724 751.939Z" fill="#B7F8A2"></path>
<path d="M282.724 751.939C283.877 748.69 284.683 745.64 288.094 744.047C289.766 743.269 291.597 743.005 293.429 742.994C298.524 742.958 303.816 743.913 308.932 744.176C315.515 744.51 340.261 744.258 345.054 745.845C346.283 746.255 346.689 746.934 347.194 748.058C348.736 751.494 348.264 804.852 348.474 812.68C348.768 823.604 350.906 834.775 350.412 845.623C345.978 853.889 301.025 851.735 292.686 845.939C285.474 840.928 284.412 836.39 281.517 828.861C295.364 829.634 322.56 835.419 337.482 838.158C337.433 828.821 339.346 766.482 336.907 762.899C330.783 753.912 294.15 753.889 282.724 751.939ZM217.013 1121.97C230.418 1134.31 222.62 1139.99 242.518 1147C243.061 1152.23 243.793 1162.41 241.466 1167C237.73 1171.13 206.535 1171.65 200.373 1172.02C186.734 1172.83 143.98 1174.39 133.711 1167.97C132.014 1165.05 133.944 1157.97 134.824 1154.51C142.944 1131.94 170.901 1130.33 190.999 1133.54C199.314 1134.86 204.973 1136.88 205.896 1145.8C207.074 1147.43 208.255 1148.39 210.283 1148.69C214.71 1146.71 213.007 1140.73 211.41 1137.33C213.402 1132.26 215.271 1127.13 217.013 1121.97Z" fill="#6BA96D"></path>
<path d="M134.824 1154.51C142.944 1131.94 170.901 1130.33 190.998 1133.54C199.314 1134.86 204.973 1136.88 205.896 1145.8C194.933 1166.85 153.103 1162.96 134.824 1154.51Z" fill="#B7F8A2"></path>
<path d="M422.009 1130.65C424.098 1133.37 425.616 1136.37 427.451 1139.26C432.679 1147.47 439.896 1156.91 438.523 1167.22C438.232 1169.4 437.279 1172.34 435.478 1173.76C426.29 1180.93 360.105 1179.97 346.367 1178.28L347.193 1167.41C352.274 1139.95 380.657 1133.17 404.218 1142.88C408.556 1144.66 409.995 1148.8 411.083 1153.05C411.263 1153.9 411.838 1154.36 412.44 1155.02C414.629 1155.72 413.711 1155.72 415.903 1155C420.276 1150.85 416.854 1145.72 414.089 1141.97C417.408 1139.42 420.584 1134.59 422.009 1130.65Z" fill="#6BA96D"></path>
<path d="M347.193 1167.41C352.274 1139.95 380.657 1133.17 404.218 1142.88C408.556 1144.66 409.995 1148.8 411.084 1153.05C410.315 1156.99 409.304 1159.66 405.724 1161.93C393.23 1169.87 361.363 1168.94 347.193 1167.41Z" fill="#B7F8A2"></path>
<path d="M503.075 818.762C506.948 819.459 512.904 821.163 517.046 822.111C533.58 824.512 545.377 824.266 561.944 823.112C563.391 835.108 561.509 859.082 558.235 870.522C550.266 871.447 513.926 870.452 508.147 867.899C504.719 867.05 501.088 866.559 498.904 863.748C497.151 858.684 501.615 825.36 503.075 818.762Z" fill="#6BA96D"></path>
<path d="M503.075 818.762C506.948 819.459 512.904 821.163 517.046 822.111C515.349 833.088 513.963 852.619 511.641 864.17C511.5 864.872 508.303 865.47 507.319 865.633L508.385 866.904L508.147 867.899C504.719 867.05 501.088 866.559 498.904 863.748C497.151 858.684 501.615 825.36 503.075 818.762ZM176.071 456.037C180.598 437.629 192.636 432.364 210.093 431.076C210.932 434.379 211.732 436.967 212.791 440.18C209.841 444.742 208.587 447.142 207.188 452.466C202.138 473.558 200.475 499.341 201.846 521.17C194.923 524.277 181.264 511.075 175.632 508.15L175.24 507.95L173.966 507.686C172.943 494.2 172.571 468.445 176.071 456.037ZM104.034 837.058C103.195 827.849 104.093 803.336 112.543 796.597C114.779 794.812 119.991 796.375 122.849 797.007C129.687 798.236 133.466 799.952 138.97 804.278C138.92 808.862 137.019 829.025 134.028 832.766C132.802 834.294 118.898 833.305 115.252 833.516C111.812 834.979 107.663 836.027 104.034 837.058Z" fill="#B7F8A2"></path>
<path d="M122.849 797.007C129.687 798.237 133.467 799.952 138.97 804.278C138.92 808.862 137.02 829.025 134.029 832.766C132.803 834.294 118.898 833.305 115.252 833.516C117.381 832.883 119.084 831.519 120.921 830.255C123.128 821.701 122.993 805.953 122.849 797.007ZM173.966 507.686L175.24 507.95L175.632 508.15C181.264 511.075 194.924 524.277 201.846 521.17C204.213 533.775 203.532 542.676 212.873 552.583C209.997 554.771 207.707 556.818 204.052 557.54C189.828 560.349 177.719 542.254 176.553 529.771C174.762 524.683 174.047 513.143 173.966 507.686Z" fill="#6BA96D"></path>
<path d="M485.689 806.89C487.894 807.674 490.342 808.833 492.509 809.793C493.765 810.508 495.336 810.999 495.462 812.65C495.885 818.148 494.928 823.792 494.061 829.178C490.964 848.427 486.003 845.196 471.209 840.571C466.745 839.16 461.334 838.352 456.656 837.52C458.708 820.677 470.656 812.018 485.689 806.89Z" fill="#B7F8A2"></path>
<path d="M492.509 809.793C493.765 810.508 495.336 810.999 495.462 812.65C495.885 818.148 494.928 823.792 494.061 829.178C490.964 848.427 486.003 845.196 471.209 840.571C474.615 832.737 475.911 825.185 482.568 818.979C486.625 815.203 489.472 814.495 492.509 809.793Z" fill="#6BA96D"></path>
<path d="M462.964 875.938C450.042 874.983 449.24 870.323 451.057 858.198C451.893 852.619 453.025 848.978 455.715 843.931C459.423 842.356 467.645 846.003 471.442 847.479C479.103 850.084 487.516 853.445 483.47 863.936C480.144 872.559 471.696 875.575 462.964 875.938Z" fill="#B7F8A2"></path>
<path d="M471.441 847.479C479.102 850.084 487.515 853.444 483.47 863.936C480.144 872.559 471.696 875.574 462.963 875.937C469.384 864.679 468.824 859.726 471.441 847.479Z" fill="#6BA96D"></path>
<path d="M117.592 870.692C107.737 868.25 106.829 860.072 105.686 851.284C104.104 839.136 113.715 838.89 122.93 838.896C133.562 841.613 137.126 850.845 136.244 861.389C135.436 871.049 125.838 872.595 117.592 870.692Z" fill="#B7F8A2"></path>
<path d="M122.93 838.896C133.562 841.612 137.126 850.845 136.244 861.389C135.436 871.049 125.838 872.594 117.592 870.692C119.512 870.61 122.943 870.739 124.325 869.726C126.519 864.316 123.35 846.085 122.93 838.896Z" fill="#6BA96D"></path>
<path d="M440.828 1142.71C444.796 1142.84 449.797 1144.25 453.364 1144.28C466.476 1144.4 479.752 1158.25 469.149 1170.37C463.675 1173.35 455.695 1173.86 449.364 1174.66C449.16 1159.72 447.754 1155.84 440.828 1142.71ZM469.499 473.771C469.879 473.758 470.259 473.75 470.638 473.745C472.952 473.719 476.369 473.778 478.11 475.484C478.003 476.835 473.441 482.15 471.927 486.409C468.494 496.072 468.77 507.225 471.978 516.917C472.724 519.169 474.854 521.539 475.842 523.743L471.301 525.058C465.46 527.412 461.239 522.293 459.642 517.21C456.156 506.119 456.136 478.133 469.499 473.771Z" fill="#B46258"></path>
<path d="M495.702 871.084C499.647 872.314 503.569 873.618 507.465 874.995L514.613 876.201C511.898 891.007 511.019 900.76 493.369 897.318L492.813 897.207C479.456 891.61 486.102 877.132 495.702 871.084Z" fill="#B7F8A2"></path>
<path d="M507.465 874.995L514.613 876.201C511.898 891.007 511.019 900.76 493.369 897.318L492.813 897.207C499.935 892.312 503.565 882.816 507.465 874.995Z" fill="#6BA96D"></path>
<path d="M96.613 805.941C97.821 805.988 97.802 806.041 98.843 806.532C99.049 808.991 97.356 816.479 97.133 820.302C96.419 832.509 96.077 844.569 97.142 856.776C94.114 857.894 90.186 858.866 87.019 859.744C85.943 859.668 86.284 859.697 85.286 858.772C82.811 849.036 85.133 826.748 88.323 816.807C90.248 810.812 91.279 808.669 96.613 805.941ZM414.089 1141.97C403.562 1132.21 381.224 1134.99 377.596 1132.33C377.878 1128.4 383.932 1124.47 387.521 1123.56C400.201 1120.36 412.044 1121.71 422.009 1130.65C420.584 1134.59 417.408 1139.42 414.089 1141.97Z" fill="#B7F8A2"></path>
<path d="M363.562 747.736C366.57 747.595 369.82 746.834 371.894 749.158C373.693 755.833 372.103 773.689 370.071 780.925C369.638 782.465 369.343 782.348 368.169 782.845C364.84 783.021 361.41 782.904 358.07 782.845C357.758 776.891 357.688 770.469 357.795 764.497C357.902 758.59 357.291 750.417 363.562 747.736Z" fill="#6BA96D"></path>
<path d="M114.827 884.655C120.184 888.753 134.153 905.222 122.439 909.331C110.493 911.141 103.629 903.571 97.7141 894.28C101.458 890.691 104.43 889.098 109.028 887.061C110.983 886.312 112.917 885.51 114.827 884.655Z" fill="#B7F8A2"></path>
<path d="M114.827 884.655C120.184 888.753 134.153 905.222 122.439 909.331C118.351 898.261 117.179 895.931 109.028 887.061C110.983 886.312 112.917 885.51 114.827 884.655Z" fill="#6BA96D"></path>
<path d="M469.632 914.185C461.011 908.172 473.933 893.999 479.039 892.225C480.474 895.579 484.1 897.933 487.014 900.157C492.913 902.692 495.654 903.366 502.034 904.326C492.161 911.72 482.798 918.939 469.632 914.185Z" fill="#B7F8A2"></path>
<path d="M487.014 900.157C492.913 902.692 495.654 903.366 502.034 904.326C492.161 911.72 482.798 918.939 469.632 914.185C474.452 910.9 485.352 904.724 487.014 900.157ZM149.472 812.229C153.559 812.644 156.197 813.3 160.181 814.243C160.998 823.294 159.337 841.519 154.034 848.995C150.487 849.083 146.367 848.977 144.036 845.781C143.657 845.512 142.824 843.626 142.954 843.187C146.003 832.924 147.734 822.779 149.472 812.229ZM521.485 876.997C526.856 877.05 532.879 877.442 538.295 877.676C538.283 878.302 538.265 878.93 538.24 879.561C537.853 889.169 534.841 895.234 527.876 901.656C522.766 904.501 518.598 902.839 513.202 901.369C519.593 890.726 519.185 888.888 521.485 876.997Z" fill="#6BA96D"></path>
<path d="M358.094 791.205C362.42 790.907 367.882 789.865 370.953 793.518C371.235 795.017 367.579 818.686 367.117 823.007C366.805 823.844 366.635 823.938 366.096 824.652C355.648 826.344 356.775 813.891 356.205 806.807C355.926 803.342 356.22 799.495 356.231 795.994C356.238 793.489 356.062 792.563 358.094 791.205Z" fill="#B46258"></path>
<path d="M112.432 874.954C124.463 878.537 121.783 880.012 136.16 877.922C140.263 885.223 147.196 895.585 142.447 903.852C139.461 904.97 138.424 905.257 135.281 905.778C135.006 905.662 134.73 905.549 134.453 905.438C133.043 900.058 133.202 896.867 129.81 892.289C127.646 889.305 125.165 886.565 122.411 884.116C118.327 880.504 114.921 879.315 112.432 874.954Z" fill="#6BA96D"></path>
<path d="M211.41 1137.33C203.656 1127.54 183.501 1127.79 182.461 1122.95C187.597 1115.08 209.696 1116.08 217.013 1121.97C215.271 1127.13 213.402 1132.26 211.41 1137.33ZM85.7 866.676C90.92 865.944 95.044 865.358 100.295 865.206C101.253 866.798 101.994 868.379 102.809 870.042C105.254 873.625 107.388 876.388 108.491 880.58C108.065 882.313 108.351 881.698 106.525 882.98C88.526 893.706 88.769 881.277 85.7 866.676Z" fill="#B7F8A2"></path>
<path d="M102.809 870.042C105.254 873.625 107.388 876.388 108.491 880.58C108.065 882.313 108.351 881.698 106.525 882.98C103.512 878.385 103.438 875.358 102.809 870.042Z" fill="#B7F8A2"></path>
<path d="M262.732 1141.84C272.834 1141.39 270.413 1154.53 270.443 1161.84C267.671 1162.75 264.159 1163.37 261.256 1163.97C252.645 1163.15 255.973 1156.68 254.445 1150.38C253.912 1148.18 252.547 1146.64 252.869 1144.34C255.076 1142.24 259.675 1142.15 262.732 1141.84ZM162.113 478.153C162.859 480.498 162 503.702 162.173 508.164C162.344 512.592 162.672 517.921 163.229 522.922C161.53 522.213 159.768 521.233 158.124 520.375C152.59 512.862 152.895 497.841 154.454 488.837C155.313 483.879 157.698 480.527 162.113 478.153ZM264.107 790.122C265.394 790.257 265.383 790.298 266.587 790.837C267.309 793.811 266.1 821.497 264.88 823.803C263.407 824.992 261.642 824.787 259.736 824.804C258.988 823.983 258.335 823.079 257.79 822.111C254.856 816.965 255.303 805.461 257.009 799.753C258.529 794.665 259.67 792.634 264.107 790.122Z" fill="#B46258"></path>
<path d="M509.856 904.946L509.971 905.017C514.043 909.876 523.904 909.671 530.694 910.081C523.76 916.046 517.032 918.3 508.28 919.922C504.127 920.449 492.129 920.871 488.28 919.536C488.997 918.728 493.558 917.551 494.913 916.989C501.109 914.436 505.465 909.683 509.856 904.946ZM551.776 878.455C554.178 878.297 554.867 878.069 556.151 879.977C556.727 882.594 555.337 885.428 554.217 887.734C550.174 896.059 546.328 900.234 538.235 904.689C536.529 905.263 536.25 905.228 534.443 905.093L533.981 904.273C535.239 901.287 538.826 898.881 540.556 895.819C543.514 890.585 543.524 885.246 545.358 879.228C546.667 878.314 549.979 878.496 551.776 878.455ZM142.755 877.061C146.615 876.892 150.724 876.938 154.609 876.921C155.285 878.413 155.913 879.926 156.491 881.458C158.649 887.324 159.04 890.369 156.458 895.948L150.504 898.302C148.81 888.852 147.923 885.275 142.755 877.061ZM144.556 854.978C146.183 855.078 151.778 855.277 152.507 856.442C153.847 858.59 154.369 869.357 152.856 871.043C149.857 871.224 146.45 871.611 143.425 871.886C144.112 866.722 143.69 859.281 144.556 854.978Z" fill="#6BA96D"></path>
<path d="M481.298 489.775C483.064 492.153 482.178 510.259 482.037 514.269L481.182 514.303C480.86 513.46 480.577 512.602 480.332 511.733C478.539 505.293 477.865 495.72 481.298 489.775Z" fill="#B46258"></path>
<path d="M333.805 6.38598C335.876 6.34898 339.767 6.15398 341.69 6.27498C358.992 4.40798 378.949 5.14198 396.527 5.14298C402.359 5.14298 416.242 5.15598 421.502 5.84098C462.576 8.37698 569.769 12.904 596.915 43.508C603.567 51.008 607.669 60.19 609.837 69.893C612.674 80.731 615.416 102.991 614.525 114.241C615.358 123.774 615.34 134.494 615.276 144.125C615.065 178.874 615.141 213.854 611.695 248.466C610.892 256.543 610.189 265.106 608.437 272.992C607.429 283.271 602.582 303.382 596.007 311.636C585.316 328.757 565.86 337.533 546.797 341.912C503.066 351.955 446.905 352.82 401.728 353.078C398.195 353.097 375.553 352.323 374.189 353.59L374.069 356.145C374.117 358.043 374.028 384.75 374.069 387H287.548C287.532 384.771 287.525 357.389 287.806 354.889C287.799 354.455 287.623 353.535 287.548 353.063C283.908 352.205 273.621 352.788 269.418 352.637C224.308 351.019 178.755 351.198 133.752 347.392C129.448 347.863 104.812 344.817 99.97 344.002C81.49 343.882 62.329 328.767 59.684 310.117C57.872 306.057 55.548 290.219 55.065 285.304C53.505 281.006 33.183 281.834 29.152 249.135C27.666 241.322 26.045 221.018 26.303 213.136C26.501 188.625 23.703 163.712 25.756 138.996C26.989 124.151 28.534 113.537 40.306 103.183C43.936 100.035 47.356 99.3 51.908 98.391C51.8968 98.0237 51.8882 97.6564 51.882 97.289C51.665 83.187 53.353 69.031 63.56 58.475C69.23 50.641 87.612 43.644 96.699 41.388C144.238 29.585 192.431 20.778 241.081 15.091C264.43 12.361 287.546 9.21498 311.074 7.96498C314.26 7.24698 329.847 6.46898 333.805 6.38598Z" fill="black"></path>
<path d="M542.043 281.47C554.762 265.785 555.29 230.839 557.069 210.81C558.001 205.31 558.575 186.5 558.491 181.283L558.456 180.706C556.971 154.047 565.542 99.332 543.946 79.927C519.343 57.823 421.639 59.81 389.375 61.846C373.172 62.868 348.079 63.522 336.693 76.479C331.238 82.686 328.263 91.417 326.498 99.378C321.526 121.806 321.655 151.897 321.636 175.031C321.375 200.981 322.093 226.931 323.788 252.826C324.398 261.059 326.391 280.983 332.965 286.845C336.315 289.832 343.418 292.787 348.083 293.681C368.847 297.664 392.105 297.939 413.176 298.037C440.925 298.166 468.967 297.631 496.523 294.901C508.299 293.734 534.276 291.048 542.043 281.47Z" fill="#FA7A2C"></path>
<path d="M531.529 92.976C532.691 93.049 534.903 93.389 535.663 94.226C543.516 102.872 547.162 143.872 540.447 151.822C526.383 147.717 527.079 125.168 527.123 113.594C527.147 107.275 527.259 97.904 531.529 92.976Z" fill="#FCC46E"></path>
<path d="M311.301 33.903C313.696 30.9345 316.321 28.1584 319.15 25.6C329.619 16.205 341.506 16.368 354.895 15.906C382.884 14.939 411.194 15.573 439.151 17.085C471.309 16.608 539.082 25.721 569.227 37.537C576.098 40.231 583.137 43.883 588.495 49.044C606.28 66.18 606.14 103.091 606.333 126.35C606.897 162.509 606.127 198.677 604.024 234.78C602.776 254.139 601.686 275.159 595.908 293.751C593.253 302.29 588.975 310.416 582.657 316.823C553.939 345.962 449.63 346.116 409.351 346.281C400.68 346.38 392.011 346.321 383.342 346.105C376.421 346.636 361.008 346.013 353.753 345.931C351.509 346.213 344.564 346.037 342.068 346.027C331.833 345.963 321.6 345.766 311.371 345.434L271.235 344.227C238.082 343.051 224.21 344.91 218.037 307.024C217.716 304.372 217.45 301.713 217.238 299.05C213.813 255.573 214.248 211.942 214.124 168.355C214.017 148.469 214.073 128.582 214.291 108.696C214.497 90.045 214.351 61.778 219.54 44.266C222.788 33.698 227.022 28.716 237.988 26.764C264.15 22.104 290.642 18.982 317.191 17.734C311.037 22.325 306.431 28.642 302.011 34.808C286.276 62.92 289.382 114.897 289.414 147.669C289.276 169.551 289.514 191.434 290.128 213.308C290.722 239.621 290.918 268.394 298.113 293.877C301.834 307.053 308.157 318.424 320.525 325.295C327.512 329.178 334.94 330.934 342.787 332.12C382.384 338.106 505.313 334.701 543.177 323.726C559.603 318.964 573.214 311.157 581.688 295.776C586.66 286.754 588.623 276.078 590.153 266.008C595.515 230.652 600.057 109.144 590.499 76.71C587.311 65.902 581.144 55.21 570.94 49.713C536.14 30.962 384.227 23.227 347.963 34.254C335.947 37.908 326.576 44.422 320.595 55.731C314.452 67.347 311.922 80.898 310.391 93.819C306.071 130.276 308.233 170.397 309.831 207.107C310.705 227.2 311.585 260.016 317.313 278.378C320.073 287.228 326.57 295.359 334.842 299.607C360.696 312.886 507.369 307.317 536.401 297.785C538.432 297.118 540.48 296.382 542.393 295.425C546.382 299.047 557.209 307.788 561.977 309.401C553.472 315.136 539.804 319.724 529.681 321.32C488.444 327.818 445.148 329.101 403.422 329.449C383.991 329.478 365.007 329.241 345.709 326.82C315.686 323.053 305.044 305.571 301.161 277.072C294.099 225.247 295.755 172.085 295.354 119.857C295.214 101.579 296.115 82.814 298.88 64.731C300.596 53.736 304.883 42.971 311.301 33.903Z" fill="#B7F8A2"></path>
<path d="M218.037 307.024C232.877 305.727 251.276 306.195 266.382 306.28C274.386 306.325 290.638 306.202 298.263 306.968C306.939 322.695 307.373 332.484 328.762 339.057C337.253 341.666 354.19 342.686 363.151 342.047C369.504 341.591 376.147 341.44 382.02 344.337C382.417 344.852 383.017 345.573 383.342 346.105C376.421 346.636 361.008 346.013 353.753 345.931C351.509 346.213 344.564 346.037 342.068 346.027C331.834 345.963 321.6 345.766 311.371 345.434L271.235 344.227C238.082 343.051 224.21 344.91 218.037 307.024Z" fill="#6BA96D"></path>
<path d="M256.479 93.34L257.848 93.385C259.205 95.015 259.663 96.195 258.627 98.057C254.073 99.735 233.092 101.58 226.924 102.239C225.685 102.49 225.746 102.456 224.541 101.995C223.309 99.858 222.901 99.021 224.201 96.973C229.867 95.609 249.332 94.158 256.479 93.341M257.109 56.488C258.276 56.319 258.526 56.46 259.631 56.77C260.696 58.708 260.766 58.116 260.388 59.787C257.327 62.061 234.718 64.798 229.355 65.657L226.415 65.985C224.51 64.903 225.184 65.455 223.884 63.35C223.969 62.631 223.889 61.931 224.409 61.651C230.476 58.389 250.799 56.992 257.109 56.488ZM252.922 76.334C255.815 75.942 257.928 75.624 260.247 77.811L259.803 79.038C255.786 82.007 238.038 83.492 231.971 84.238C228.217 84.969 226.811 85.806 223.904 83.022C223.306 81.246 223.257 81.942 223.883 80.368C227.289 78.214 247.488 76.892 252.922 76.334Z" fill="black"></path>
<path d="M63.555 80.362C65.817 69.209 72.803 61.177 83.169 56.87C98.459 50.519 114.884 47.421 131.03 43.984C160.439 37.7342 189.998 32.2145 219.68 27.43C214.269 33.803 212.732 38.514 210.365 46.296C207.35 63.017 206.915 84.112 206.645 101.244C206.356 122.322 206.269 143.403 206.383 164.483L206.759 230.851C206.968 254.605 207.45 282.858 210.092 306.332C213.037 323.098 214.345 330.988 225.134 344.314C183.522 344.112 138.617 341.507 97.378 336.497C75.896 333.888 69.516 317.412 66.451 298.539C64.385 288.276 63.397 271.073 62.921 260.578C61.6456 224.572 61.1511 188.542 61.438 152.515C61.428 140.243 60.103 89.285 63.555 80.362Z" fill="#B7F8A2"></path>
<path d="M66.45 298.539C104.945 307.437 147.07 303.385 186.398 305.741C188.712 305.88 209.155 306.719 210.092 306.332C213.036 323.098 214.344 330.988 225.134 344.314C183.522 344.112 138.617 341.507 97.377 336.497C75.897 333.888 69.516 317.412 66.45 298.539Z" fill="#6BA96D"></path>
<path d="M34.9199 143.703C35.3629 132.21 36.6889 115.76 48.6899 110.392C50.2139 109.71 50.3359 109.9 51.6799 110.445C52.8069 118.586 52.0059 144.773 52.0099 154.312C52.0726 175.565 52.3482 196.816 52.8369 218.064C53.0499 228.069 53.0179 239.635 53.5709 249.528L52.8969 250.889C46.9679 249.433 44.1949 249.023 38.2629 249.646C34.8169 229.801 35.0149 201.271 34.5929 180.92C34.3829 170.678 34.1489 153.536 34.9199 143.703Z" fill="#B7F8A2"></path>
<path d="M301.062 360.206C309.611 359.954 347.448 357.505 352.062 361.637C352.875 369.001 357.484 385.326 346.183 384.688C339.806 384.327 329.794 385.251 323.819 384.145C321.148 384.289 313.437 383.584 310.538 383.362C305.531 383.027 300.384 383.236 299.683 376.421C299.186 371.58 300.255 365.079 301.062 360.206Z" fill="#B46258"></path>
<path d="M53.5699 249.528C54.0999 251.427 55.0879 273.781 54.4609 274.949C43.6719 276.669 39.3909 257.318 38.2629 249.646C44.1949 249.023 46.9679 249.433 52.8969 250.889L53.5699 249.528ZM408.608 33.889C442.991 33.588 477.769 35.039 511.837 39.862C529.056 42.3 550.051 45.402 565.682 52.946C579.412 59.573 585.648 78.439 587.879 92.397C591.29 113.71 590.774 135.259 590.78 156.772C590.522 191.214 589.871 226.163 585.488 260.348C583.463 276.155 578.331 301.881 561.977 309.401C557.209 307.788 546.383 299.048 542.394 295.425C551.715 287.143 555.6 287.226 560.281 274.057C571.174 243.418 572.46 142.943 568.202 109.589C567.108 101.015 565.267 92.282 561.48 84.456C556.073 73.284 547.583 67.578 536.141 63.641C523.648 59.342 509.588 57.225 496.451 55.733C462.428 51.868 366.912 48.453 338.22 62.513C326.644 68.187 321.777 79.559 317.87 91.043C316.241 95.783 314.846 105.426 314.026 110.684L313.404 110.393C313.353 104.089 314.933 95.386 316.022 89.024C319.258 62.993 329.401 41.022 357.606 36.914C374.617 34.434 391.428 33.8 408.608 33.889Z" fill="#6BA96D"></path>
</svg>